<?xml version="1.0" encoding="UTF-8"?> <svg xmlns="http://www.w3.org/2000/svg" width="289" height="289" viewBox="0 0 289 289" fill="none"><circle cx="144.5" cy="144.5" r="144.5" fill="#FF6F32"></circle><path d="M145 97L132.46 109.54L145 122.08M98.62 91L91 98.62L119.38 127H91V163H115L145 193V152.62L170.5 178.18C166.48 181.24 161.98 183.76 157 185.2V197.62C165.28 195.7 172.78 191.92 179.08 186.76L191.38 199L199 191.38L145 137.38M187 145C187 150.64 185.8 155.92 183.76 160.84L192.82 169.9C196.873 162.226 198.994 153.679 199 145C199 119.32 181 97.84 157 92.38V104.74C174.34 109.9 187 125.98 187 145ZM172 145C172 134.38 166 125.26 157 120.82V134.08L171.7 148.78C172 147.58 172 146.26 172 145Z" fill="white"></path></svg> 