<?xml version="1.0" encoding="UTF-8"?> <svg xmlns="http://www.w3.org/2000/svg" width="289" height="289" viewBox="0 0 289 289" fill="none"><circle cx="144.5" cy="144.5" r="144.5" fill="#FF6F32"></circle><path d="M181.007 145C181.007 130.023 171.852 117.198 158.859 111.777L155.399 120.088C165.145 124.159 172 133.778 172 145C172 156.243 165.145 165.841 155.378 169.912L158.838 178.223C171.852 172.802 181.007 159.977 181.007 145ZM162.993 145C162.993 137.512 158.416 131.099 151.919 128.399L148.459 136.71C151.708 138.06 153.986 141.266 153.986 145.021C153.986 148.755 151.708 151.961 148.459 153.332L151.919 161.643C158.416 158.901 162.993 152.488 162.993 145ZM165.777 95.1555L162.297 103.466C178.56 110.237 189.993 126.269 189.993 145C189.993 163.71 178.56 179.762 162.297 186.534L165.756 194.845C185.289 186.702 199 167.465 199 145C199 122.535 185.289 103.298 165.777 95.1555ZM91 122.493V167.486H108.993L140.507 199V91L108.993 122.493H91Z" fill="white"></path></svg> 